<?xml version="1.0" standalone="no"?>
<!DOCTYPE svg PUBLIC "-//W3C//DTD SVG 20010904//EN"
 "http://www.w3.org/TR/2001/REC-SVG-20010904/DTD/svg10.dtd">
<svg version="1.0" xmlns="http://www.w3.org/2000/svg"
 width="594.000000pt" height="594.000000pt" viewBox="0 0 594.000000 594.000000"
 preserveAspectRatio="xMidYMid meet">
<metadata>
Created by potrace 1.11, written by Peter Selinger 2001-2013
</metadata>
<g transform="translate(0.000000,594.000000) scale(0.100000,-0.100000)"
fill="#000000" stroke="none">
<path d="M5695 4454 c-110 -29 -240 -64 -290 -77 -49 -14 -180 -49 -290 -77
-110 -28 -204 -55 -208 -59 -4 -4 -10 -181 -12 -392 -3 -211 -7 -546 -10 -744
-2 -198 -7 -594 -11 -880 -3 -286 -7 -563 -7 -615 l-2 -95 -2352 -3 c-1556 -1
-2353 -5 -2354 -12 -1 -13 -1 -67 0 -80 1 -7 813 -10 2414 -10 l2413 0 143
468 c79 257 144 474 146 482 2 8 58 191 124 405 65 215 151 496 191 625 68
220 101 329 170 560 27 90 154 505 166 543 8 24 -1 22 -231 -39z"/>
<path d="M175 3501 l0 -711 230 0 c203 0 269 4 365 24 14 3 63 24 109 47 112
55 193 137 249 251 59 120 74 194 75 383 1 142 -7 204 -38 302 -53 170 -175
304 -333 368 -88 36 -109 38 -392 42 l-265 4 0 -710z m530 541 c171 -49 273
-174 302 -372 9 -58 9 -258 1 -331 -19 -158 -107 -291 -233 -350 -79 -37 -124
-45 -281 -48 l-131 -2 0 561 0 561 146 -2 c90 -1 165 -8 196 -17z"/>
<path d="M1903 3501 l-1 -711 94 0 94 0 1 38 c0 20 0 151 0 290 l0 252 167 0
167 0 25 -47 c14 -27 65 -122 113 -213 49 -91 107 -200 129 -242 l40 -78 104
0 c57 0 104 2 104 4 0 5 -153 287 -276 507 -30 54 -54 100 -54 103 0 3 21 17
48 30 141 72 224 214 216 372 -10 196 -94 311 -275 375 -60 21 -83 23 -380 27
l-316 3 0 -710z m600 539 c77 -24 120 -59 152 -124 50 -102 33 -230 -40 -308
-23 -25 -75 -58 -100 -64 -5 -2 -23 -7 -40 -12 -16 -5 -110 -10 -207 -11
l-177 -2 0 271 1 271 177 -2 c137 -1 189 -5 234 -19z"/>
<path d="M3665 3503 l0 -708 95 -3 95 -3 -2 281 -2 280 217 1 c243 1 251 1
342 30 143 45 238 146 269 288 10 45 8 185 -3 231 -22 94 -117 208 -213 254
-98 49 -160 56 -493 56 l-305 0 0 -707z m673 528 c106 -47 165 -152 158 -276
-7 -111 -55 -184 -150 -226 -47 -21 -69 -23 -273 -27 l-221 -4 0 282 -1 282
217 -4 c202 -3 221 -5 270 -27z"/>
<path d="M1413 2980 c-53 -21 -69 -129 -25 -172 21 -22 87 -34 126 -24 81 20
98 147 25 190 -29 17 -90 20 -126 6z"/>
<path d="M3163 2970 c-35 -21 -50 -66 -38 -118 9 -42 37 -64 89 -69 60 -7 101
11 120 52 16 33 16 45 2 96 -16 55 -111 77 -173 39z"/>
<path d="M1313 2484 c-53 -26 -103 -78 -124 -130 -19 -48 -24 -94 -23 -221 1
-117 2 -125 33 -188 18 -36 47 -76 65 -90 122 -93 296 -62 374 66 60 98 63
338 6 452 -43 86 -112 129 -214 133 -52 2 -75 -2 -117 -22z m216 -28 c56 -30
100 -88 119 -156 11 -42 8 -256 -4 -298 -32 -104 -94 -158 -196 -169 -112 -12
-207 50 -241 161 -23 73 -23 267 1 329 23 61 66 112 114 135 54 26 156 24 207
-2z"/>
<path d="M1960 2483 c-95 -47 -138 -129 -146 -282 -5 -80 4 -180 20 -226 21
-63 59 -110 115 -143 57 -33 160 -40 221 -14 77 33 135 109 155 202 14 63 7
253 -11 306 -40 119 -114 176 -236 180 -54 2 -75 -2 -118 -23z m203 -21 c102
-46 138 -118 143 -283 4 -154 -17 -231 -79 -293 -50 -49 -165 -71 -231 -45
-114 46 -156 132 -157 322 -1 159 37 245 133 295 50 26 137 28 191 4z"/>
<path d="M4210 2489 c-58 -26 -96 -62 -128 -124 -25 -47 -27 -59 -28 -195 -3
-172 12 -225 82 -296 74 -74 198 -93 325 -49 84 29 89 39 89 176 l0 120 -117
-3 c-82 -2 -118 -7 -121 -15 -3 -10 23 -13 105 -13 l109 0 -1 -93 c0 -51 -5
-98 -9 -106 -8 -12 -60 -39 -96 -49 -8 -2 -47 -5 -86 -7 -95 -5 -158 23 -205
91 -43 62 -56 126 -54 255 2 89 6 115 27 161 46 99 111 138 226 135 99 -4 159
-48 192 -141 8 -21 14 -26 22 -18 12 12 -3 58 -34 104 -53 77 -202 110 -298
67z"/>
<path d="M175 2158 c0 -263 3 -342 13 -346 9 -3 12 36 12 167 l0 171 178 2
c237 4 237 22 0 26 l-178 2 0 145 0 145 205 0 c178 0 204 2 199 15 -5 13 -39
15 -218 15 l-211 0 0 -342z"/>
<path d="M727 2493 c-2 -5 -3 -159 -3 -343 l1 -335 188 0 c118 0 187 4 187 10
0 6 -67 11 -175 13 l-175 2 0 330 c0 294 -5 359 -23 323z"/>
<path d="M2483 2155 c1 -277 3 -345 14 -345 10 0 12 31 10 145 l-2 145 122 0
122 0 41 -67 c95 -157 138 -218 155 -221 12 -3 15 0 9 10 -4 7 -42 67 -84 133
-99 155 -97 152 -54 170 36 15 83 62 97 99 27 67 8 176 -39 218 -48 43 -105
56 -251 57 l-140 2 0 -346z m327 291 c59 -30 82 -64 88 -128 5 -69 -14 -117
-64 -154 -37 -28 -41 -29 -181 -32 l-143 -4 -1 61 c0 34 -1 81 -1 106 0 25 1
74 1 110 l1 66 128 -2 c110 -1 135 -4 172 -23z"/>
<path d="M3144 2155 c0 -274 3 -345 13 -345 10 0 13 71 13 345 0 276 -3 345
-13 345 -10 0 -13 -69 -13 -345z"/>
<path d="M3375 2155 c0 -270 3 -345 12 -345 15 0 14 -24 14 348 l0 294 42 -58
c23 -32 92 -131 152 -219 61 -89 142 -207 180 -263 39 -56 76 -102 83 -102 9
0 12 76 12 346 0 266 -3 345 -12 342 -9 -3 -12 -81 -12 -316 0 -172 -2 -312
-5 -312 -3 1 -19 20 -35 43 -94 134 -363 527 -381 554 -11 18 -27 32 -35 33
-13 0 -15 -45 -15 -345z"/>
</g>
</svg>
